@startuml
 
title 定位重构框架
  
application -> framework_location: 开启定位
note left: 调用参数

framework_location -> drv_location: drvLoc_gnssStart()
drv_location -> framework_location: GNSS开启成功/失败

framework_location -> application: 开启成功/失败


drv_location -> drv_location: nmea数据解析
drv_location -> framework_location: GPS数据上传
note right: GPS数据结构体

framework_location -> framework_location: GPS数据处理

framework_location -> application: 定位成功/失败

... 其他定位事件 ...

framework_location -> application: 所有定位任务完成
application -> framework_location: 关闭定位
framework_location -> drv_location: drvLoc_gnssClose()
drv_location -> framework_location: GNSS关闭成功/失败
framework_location -> application: 关闭成功/失败

@enduml


@startuml
testdot
@enduml

@startuml
 
left to right direction
actor 消费者
actor 销售员
rectangle 买单 {
消费者 -- (买单)
(买单) .> (付款) : include
(帮助) .> (买单) : extends
(买单) -- 销售员
}
 
@enduml

@startuml
 
title 流程图1
 
(*) --> "步骤1处理"
--> "步骤2处理"
if "条件1判断" then
    ->[true] "条件1成立时执行的动作"
    if "分支条件2判断" then
        ->[no] "条件2不成立时执行的动作"
        -> === 中间流程汇总点1 ===
    else
        -->[yes] === 中间流程汇总点1 ===
    endif
    if "分支条件3判断" then
        -->[yes] "分支条件3成立时执行的动作"
        --> "Page.onRender ()" as render
        --> === REDIRECT_CHECK ===
    else
        -->[no] "分支条件3不成立时的动作"
        --> render
    endif
else
    -->[false] === REDIRECT_CHECK ===
endif
 
if "条件4判断" then
    ->[yes] "条件4成立时执行的动作"
    --> "流程最后结点"
else
endif
--> "流程最后结点"
-->(*)

@enduml


@startuml

title 流程图2
 
start
:"步骤1处理";
:"步骤2处理";
if ("条件1判断") then (true)
    :条件1成立时执行的动作;
    if ("分支条件2判断") then (no)
        :"条件2不成立时执行的动作";
    else
        if ("条件3判断") then (yes)
            :"条件3成立时的动作";
        else (no)
            :"条件3不成立时的动作";
        endif
    endif
    :"顺序步骤3处理";
endif
 
if ("条件4判断") then (yes)
:"条件4成立的动作";
else
    if ("条件5判断") then (yes)
        :"条件5成立时的动作";
    else (no)
        :"条件5不成立时的动作";
    endif
endif
stop
@enduml

@startuml
 
package "组件1" {
    ["组件1.1"] - ["组件1.2"]
    ["组件1.2"] -> ["组件2.1"]
}
 
node "组件2" {
    ["组件2.1"] - ["组件2.2"]
    ["组件2.2"] --> [负载均衡服务器]
}
 
cloud {
    [负载均衡服务器] -> [逻辑服务器1]
    [负载均衡服务器] -> [逻辑服务器2]
    [负载均衡服务器] -> [逻辑服务器3]
}
 
database "MySql" {
    folder "This is my folder" {
        [Folder 3]
    }
 
    frame "Foo" {
        [Frame 4]
    }
}
 
[逻辑服务器1] --> [Folder 3]
[逻辑服务器2] --> [Frame 4]
[逻辑服务器3] --> [Frame 4]
 
@enduml


@startuml
 
scale 640 width
 
[*] --> NotShooting
 
state NotShooting {
    [*] --> Idle
    Idle --> Processing: SignalEvent
    Processing --> Idle: Finish
    Idle --> Configuring : EvConfig
    Configuring --> Idle : EvConfig
}
 
state Configuring {
    [*] --> NewValueSelection
    NewValueSelection --> NewValuePreview : EvNewValue
    NewValuePreview --> NewValueSelection : EvNewValueRejected
    NewValuePreview --> NewValueSelection : EvNewValueSaved
    state NewValuePreview {
        State1 -> State2
    }
}
 
@enduml



